<svg id="Layer_1" data-name="Layer 1" xmlns="http://www.w3.org/2000/svg" viewBox="0 0 1649.81 374.56"><defs><style>.cls-1{fill:#282828}.cls-2{fill:#ffd400}</style></defs><path class="cls-1" d="M694 224.46h-49.59V150h-57.36v74.49h-49.62V41.73h49.62v67.74h57.36V41.73H694zm204.11-91.62a136.49 136.49 0 01-5.06 38.44 78.94 78.94 0 01-15.81 29.81 69.35 69.35 0 01-27.62 19.18Q832.75 227 809.25 227q-23 0-39.81-6.69a70.63 70.63 0 01-27.68-19.12 79.6 79.6 0 01-16.13-29.81 133.68 133.68 0 01-5.25-38.75q0-28.49 9.44-49.55A70.13 70.13 0 01759 50.41q19.75-11.55 50.5-11.56 31.25 0 50.81 11.63A68.9 68.9 0 01889 83.22q9.11 21.14 9.11 49.62zm-125.73 0q0 16.5 3.75 28.38T788 179.46q8.13 6.38 21.25 6.38 13.62 0 21.68-6.38t11.63-18.24q3.56-11.88 3.56-28.38 0-24.74-8.25-39.12T809.5 79.35q-13.38 0-21.56 6.5t-11.88 18.5q-3.67 12-3.68 28.49zm152.33 91.62V41.73h49.37v142.86h70.37v39.87zm142.59 0V41.73h49.37v142.86H1187v39.87zm313.57-91.62a136.48 136.48 0 01-5.07 38.44 78.94 78.94 0 01-15.8 29.81 69.28 69.28 0 01-27.62 19.18Q1315.5 227 1292 227q-23 0-39.81-6.69a70.71 70.71 0 01-27.68-19.12 79.6 79.6 0 01-16.13-29.81 133.68 133.68 0 01-5.25-38.75q0-28.49 9.44-49.55a70.1 70.1 0 0129.19-32.63q19.74-11.55 50.49-11.56 31.24 0 50.81 11.63a68.9 68.9 0 0128.68 32.74q9.12 21.1 9.13 49.58zm-125.74 0q0 16.5 3.75 28.38t11.87 18.24q8.13 6.38 21.25 6.38 13.62 0 21.69-6.38t11.62-18.24q3.56-11.88 3.56-28.38 0-24.74-8.25-39.12t-28.37-14.37q-13.38 0-21.56 6.5t-11.87 18.5q-3.69 12-3.69 28.49zm394.68-91.11l-45 182.73h-58.37L1529 144.84q-.5-2.25-1.56-7.62T1525 125q-1.3-6.87-2.37-13.56t-1.56-11.31q-.51 4.62-1.63 11.31T1517 125q-1.32 6.87-2.5 12.25t-1.69 7.62l-17.63 79.62h-58.36l-45.23-182.76h47.62l19.87 91.61q.75 3.38 2.07 9.56t2.75 13.5q1.42 7.32 2.68 14.07t1.75 11.24q1-7.74 2.69-17.62t3.75-20.06q2.06-10.18 3.94-18.94t3.25-14.24l16.12-69.12h45.74l15.63 69.12q1.24 5.37 3.19 14.18t4 19.06q2.05 10.26 3.81 20.19t2.62 17.43q.75-6.24 2.5-15.81t3.56-18.62q1.81-9.06 2.82-13.69l20.24-91.86zM555.15 268.79a30.48 30.48 0 0110.28 1.49 11.5 11.5 0 018.23 11.77 12.83 12.83 0 01-.93 5 12.59 12.59 0 01-2.66 4 17.56 17.56 0 01-4.11 3.09l13.23 19.55h-13.92l-9.63-16.33h-3.1v16.33h-12.28v-44.9zM555 278h-2.42v10.25h2.29a8 8 0 004.63-1.23c1.2-.81 1.81-2.28 1.81-4.39a4.14 4.14 0 00-1.5-3.4Q558.29 278 555 278zm55.29 35.67h-27v-44.88h27v9.73H595.6v7.06h13.6v9.73h-13.6v8.48h14.69zm28.18-35.58a8.05 8.05 0 00-3.88.91 8.39 8.39 0 00-2.93 2.62 12.79 12.79 0 00-1.84 4.19 22.28 22.28 0 00-.64 5.6 20.25 20.25 0 001.09 7.13 8.71 8.71 0 003.31 4.36 9.89 9.89 0 005.57 1.47 20.75 20.75 0 005.86-.83 59.21 59.21 0 005.67-2v10.26a28.17 28.17 0 01-6.17 1.9 36.63 36.63 0 01-6.69.58q-7.4 0-12.1-2.9a17.21 17.21 0 01-6.93-8.06 30 30 0 01-2.22-12A28.85 28.85 0 01618 282a21.09 21.09 0 014.24-7.35 18.76 18.76 0 016.91-4.82 24.44 24.44 0 019.43-1.71 34.65 34.65 0 016.95.76 30.91 30.91 0 017.13 2.41l-3.76 9.54a41 41 0 00-5-2 18 18 0 00-5.43-.74zm35.94-9.3a30.55 30.55 0 0110.29 1.49 11.53 11.53 0 018.23 11.77 12.83 12.83 0 01-.93 5 12.59 12.59 0 01-2.66 4 17.56 17.56 0 01-4.11 3.09l13.23 19.55h-13.92l-9.63-16.33h-3.11v16.33h-12.27v-44.9zm-.18 9.18h-2.43v10.25h2.3a8 8 0 004.63-1.23c1.2-.81 1.8-2.28 1.8-4.39a4.13 4.13 0 00-1.49-3.4c-.99-.82-2.6-1.2-4.81-1.2zm55.33 35.7h-27v-44.88h27v9.73h-14.7v7.06h13.61v9.73h-13.61v8.48h14.7zm35.82 0l-2.24-8.41h-14.75l-2.3 8.41H732.6l14.82-45.06h16.38l15 45.06zm-4.78-18.36l-2-7.37-.9-3.42c-.4-1.48-.78-3-1.17-4.6s-.68-2.89-.88-3.92c-.19 1-.45 2.29-.79 3.79s-.7 3-1.06 4.47-.68 2.7-1 3.68l-2 7.37zm43.15 18.36h-12.27v-35h-11.09v-9.91h34.42v9.91h-11.06zm17.55 0v-44.88h12.33v44.88zm65.4 0h-16.1L854 282.05h-.28c.11 1 .2 2.12.28 3.47s.16 2.73.22 4.13.09 2.67.09 3.79v20.23h-10.86v-44.88h16L876 300h.19c-.07-1-.13-2.12-.19-3.42s-.12-2.62-.17-3.95-.08-2.51-.08-3.53v-20.31h10.95zm28.05-26.28h19.6v24.19a50.44 50.44 0 01-8 1.95 58.27 58.27 0 01-9.51.75 24.94 24.94 0 01-11.49-2.51 17.82 17.82 0 01-7.71-7.66q-2.76-5.14-2.76-13a25.71 25.71 0 012.73-12.21 18.92 18.92 0 018.06-7.95 27.79 27.79 0 0113.07-2.81 39.51 39.51 0 018.07.8 34.73 34.73 0 016.65 2l-3.88 9.51a24 24 0 00-5.1-1.79 25.57 25.57 0 00-5.68-.6 10.81 10.81 0 00-6.54 1.81 10.27 10.27 0 00-3.59 4.84 19.21 19.21 0 00-1.12 6.67 18.28 18.28 0 001.2 7 9.26 9.26 0 003.51 4.36 10.16 10.16 0 005.61 1.49 25.75 25.75 0 002.65-.16 16.3 16.3 0 002.38-.36v-7h-8.11zm65.43 26.28h-12.27v-35h-11.09v-9.91h34.42v9.91h-11.06zm56.48 0h-12.33v-18.3h-14.26v18.3h-12.34v-44.88h12.34v16.64h14.26v-16.64h12.33zm36.78 0h-27v-44.88h27v9.73h-14.69v7.06h13.61v9.73h-13.61v8.48h14.69zm84.72-44.88L1147 313.67h-14.51l-4.35-19.55c-.08-.37-.21-1-.39-1.88s-.37-1.88-.59-3-.41-2.23-.59-3.33-.3-2-.39-2.77c-.08.75-.21 1.68-.4 2.77s-.39 2.21-.6 3.33-.43 2.13-.63 3-.33 1.51-.42 1.88l-4.38 19.55h-14.5L1094 268.79h11.84l4.94 22.5.51 2.35c.22 1 .44 2.12.68 3.31s.46 2.35.67 3.46.35 2 .43 2.76c.17-1.27.39-2.71.67-4.33s.59-3.26.93-4.92.67-3.22 1-4.65.58-2.6.81-3.5l4-17h11.37l3.88 17c.21.88.47 2 .79 3.48s.66 3 1 4.68.66 3.33 1 5 .5 3.05.65 4.28c.12-1 .33-2.32.62-3.88s.59-3.09.89-4.58.53-2.6.69-3.36l5-22.56zm33.74 44.88l-2.23-8.41h-14.76l-2.3 8.41h-13.48l14.87-45.06h16.37l15 45.06zm-4.78-18.36l-2-7.37-.9-3.42c-.39-1.48-.78-3-1.16-4.6s-.68-2.89-.89-3.92c-.19 1-.45 2.29-.79 3.79s-.7 3-1.06 4.47-.68 2.7-.95 3.68l-2 7.37zm39.33-9.88l7.83-16.64h13.3l-14.95 27.35v17.53h-12.36v-17.16l-15-27.72h13.36zm58.78 0l7.83-16.64h13.3l-14.95 27.35v17.53h-12.36v-17.16l-15-27.72h13.36zm68.54 5.74a33.18 33.18 0 01-1.26 9.44 19.44 19.44 0 01-3.93 7.32 17.14 17.14 0 01-6.87 4.71 27.41 27.41 0 01-10 1.64 26.91 26.91 0 01-9.9-1.64 17.47 17.47 0 01-6.88-4.7 19.41 19.41 0 01-4-7.32 32.4 32.4 0 01-1.3-9.51 29.26 29.26 0 012.34-12.17 17.33 17.33 0 017.26-8q4.9-2.84 12.55-2.84t12.63 2.86a17 17 0 017.13 8 30.27 30.27 0 012.23 12.21zm-31.26 0a23.11 23.11 0 00.93 7 9 9 0 003 4.48 8.42 8.42 0 005.29 1.56 8.57 8.57 0 005.39-1.56 8.83 8.83 0 002.89-4.48 24.22 24.22 0 00.88-7c0-4.05-.68-7.26-2-9.61s-3.72-3.53-7-3.53a8.39 8.39 0 00-5.36 1.6 8.88 8.88 0 00-3 4.54 23.71 23.71 0 00-1.02 7zm78.07-22.38v27a20.88 20.88 0 01-2.17 9.81 14.9 14.9 0 01-6.53 6.42 23.58 23.58 0 01-10.9 2.25q-9.37 0-14.32-4.75t-4.94-13.45v-27.28h12.33v26.34q0 4.75 1.8 6.91a6.57 6.57 0 005.32 2.14 8.05 8.05 0 004.1-.93 5.42 5.42 0 002.31-3 15.56 15.56 0 00.73-5.22v-26.24z"/><path class="cls-2" d="M1426.65 313.67v-44.88h12.27v35.09h17.49v9.79zm64 0h-27v-44.88h27v9.73H1476v7.06h13.61v9.73H1476v8.48h14.7zm35.82 0l-2.24-8.41h-14.75l-2.3 8.41h-13.49l14.82-45.06h16.37l15 45.06zm-4.79-18.36l-2-7.37-.9-3.42c-.4-1.48-.79-3-1.17-4.6s-.68-2.89-.88-3.92c-.19 1-.45 2.29-.8 3.79s-.69 3-1 4.47-.68 2.7-1 3.68l-2 7.37zm38-26.52a30.48 30.48 0 0110.28 1.49 11.52 11.52 0 018.24 11.77 12.5 12.5 0 01-3.59 9 17.42 17.42 0 01-4.12 3.09l13.24 19.55h-13.92l-9.63-16.33h-3.11v16.33h-12.27v-44.9zm-.19 9.18h-2.42v10.25h2.3A8.05 8.05 0 001564 287c1.2-.81 1.8-2.28 1.8-4.39a4.16 4.16 0 00-1.49-3.4c-1-.83-2.6-1.21-4.82-1.21zm71.61 35.7H1615l-16.59-31.62h-.28c.1 1 .2 2.12.28 3.47s.16 2.73.22 4.13.09 2.67.09 3.79v20.23h-10.87v-44.88h16l16.57 31.21h.18q-.09-1.47-.18-3.42c-.07-1.3-.12-2.62-.17-3.95s-.08-2.51-.08-3.53v-20.31h10.93zM253 365.89c-.72.45-1.44.86-2.14 1.26-12.62 7.16-24.28 8.4-34 6.78a58.24 58.24 0 01-12.49-3.48c-1-.41-2-.88-3-1.39l-6.39-3.47-177.4-96.43C6.81 263.29 0 251.24 0 238.06V50.85C0 37.39 9.19 26.69 20.58 25c.34-.06.7-.1 1-.13a21.17 21.17 0 017 .45l163 37c13.52 3.08 23.52 15.32 25.06 30.06.12 1.27.15 2.56.15 3.86v247.14a1.34 1.34 0 000 .2c1.21 20.18 19.82 30.54 36.21 22.31z"/><path class="cls-1" d="M431.42 56.56v182.61c0 16.35-4.37 23.73-17.81 31.29l-160.7 95.44c-16.76 8.23-35.82-2.14-37.07-22.31V96.26c0-.65 0-1.29-.05-1.93v1.93c0-1.29 0-2.58-.16-3.86-1.58-14.73-11.83-27-25.7-30.05l-161.34-37a22.26 22.26 0 00-7.15-.45L204.47.77a71.75 71.75 0 018.16-.77 72.5 72.5 0 018.16.73L411 28.23l-1 .34a27.9 27.9 0 0121.32 26.06c.09.62.1 1.27.1 1.93z"/><path class="cls-1" d="M215.84 237.3l-33.11-9.05v81.4a6.56 6.56 0 01-8.29 6.33l-46.82-12.79a6.56 6.56 0 01-4.83-6.33V89.71a6.57 6.57 0 018.29-6.33l46.82 12.8a6.56 6.56 0 014.83 6.33v76.82l33.11 9"/><path class="cls-2" d="M215.84 188.38l33.1-9v-76.87a6.56 6.56 0 014.84-6.33l46.82-12.8a6.57 6.57 0 018.29 6.33v207.15a6.56 6.56 0 01-4.83 6.33L257.24 316a6.57 6.57 0 01-8.3-6.33v-81.4l-33.1 9.05"/></svg>